<svg id="Layer_1" data-name="Layer 1" xmlns="http://www.w3.org/2000/svg" viewBox="0 0 612 612"><defs><style>.cls-1{fill:#1d1d1b;}</style></defs><title>Artboard 1</title><path class="cls-1" d="M503.58,412.67a247.45,247.45,0,0,1-14.36,23.17,175.78,175.78,0,0,1-15.9,19.88,242.73,242.73,0,0,1-19.26,19.1c-3.39,3-6.88,5.88-10.42,8.71-.31.25-2.25,1.72-.35.28L441,485.53c-2.3,1.71-4.63,3.37-7,5a242.35,242.35,0,0,1-23.31,14.16q-5.73,3-11.62,5.78-3,1.36-5.95,2.66c-2.53,1.09,3.23-1.26-1.1.45-1.35.53-2.69,1.08-4,1.6a238.65,238.65,0,0,1-26.46,8.45q-6.45,1.65-13,2.93-3.66.72-7.33,1.33l-2.95.46c-.1,0-4.82.65-1.94.29a243.9,243.9,0,0,1-55.41.61l-3.43-.38c-.75-.09-3.79-.5-.79-.08-2-.28-4.06-.6-6.09-.93-4.25-.71-8.49-1.52-12.69-2.46a237.08,237.08,0,0,1-25.26-7.08q-5.68-1.94-11.26-4.16l-3.08-1.25c2.57,1.06.41.17-.09,0-2.22-1-4.44-2-6.64-3A238.14,238.14,0,0,1,189,497.65a242,242,0,0,1-20.58-14.08c2.31,1.76-1.37-1.1-2.11-1.7q-2.55-2.06-5-4.19-5-4.24-9.72-8.76a240.66,240.66,0,0,1-17.09-18q-1.91-2.25-3.77-4.53c-.54-.66-3.91-5-2.11-2.63q-4-5.21-7.68-10.63a243,243,0,0,1-13-21.37q-2.82-5.24-5.37-10.61-1.41-3-2.75-6c-.36-.81-.71-1.62-1.06-2.44,1.24,2.91-.28-.7-.53-1.32A238.17,238.17,0,0,1,84.24,341.5q-.51-3-.93-6.1c.43,3.07-.29-2.64-.39-3.52Q82.19,325,81.84,318A244.24,244.24,0,0,1,82,291.39q.39-6.57,1.15-13.11c.1-.91.22-1.82.33-2.73-.35,2.85-.06.46,0-.1.42-2.7.83-5.4,1.32-8.1a238.2,238.2,0,0,1,5.91-25,240.74,240.74,0,0,1,8.46-23.92c-1.15,2.77,1-2.33,1.39-3.12q1.22-2.72,2.52-5.4,2.87-6,6.05-11.74A242.65,242.65,0,0,1,122.34,177q1.88-2.69,3.83-5.33c.57-.77,3.4-4.47,1.61-2.18q4-5.16,8.34-10.1a240.69,240.69,0,0,1,17.29-17.85q4.54-4.25,9.31-8.24c1.5-1.26,3-2.51,4.56-3.73l2.05-1.63c-2.52,2,1.16-.85,1.66-1.23a240.07,240.07,0,0,1,43-25.43c1.8-.82,3.62-1.63,5.45-2.41-2.69,1.15,0,0,.71-.28,1-.41,2.06-.83,3.1-1.23,4.14-1.61,8.34-3.11,12.57-4.48a234.8,234.8,0,0,1,24.74-6.6q6-1.26,12.06-2.21l2.71-.41c4.36-.67-1.88.22.78-.11,2.51-.3,5-.58,7.55-.81a241.78,241.78,0,0,1,27.84-1,218.78,218.78,0,0,1,64.44,11,201.38,201.38,0,0,1,28.55,11.57c7.27,3.56,16.23,2,20.53-5.38,3.86-6.61,1.92-16.94-5.39-20.53C343,40.85,251,43.24,177.19,86.63c-63.1,37.12-109,101.8-121.54,174.09A257.37,257.37,0,0,0,113.2,472.09c48.18,56.44,121,89.14,195.1,88.44,81.86-.77,158.73-41.81,206-108.38a244.33,244.33,0,0,0,15.18-24.34c3.89-7.11,1.75-16.36-5.38-20.52-6.86-4-16.62-1.75-20.52,5.38Z"/></svg>