<svg id="Layer_1" data-name="Layer 1" xmlns="http://www.w3.org/2000/svg" viewBox="0 0 143.01 143.01"><defs><style>.cls-1{fill:#ebedea;}.cls-2{isolation:isolate;}.cls-3{fill:#010101;}</style></defs><title>Artboard 1</title><rect class="cls-1" x="-0.36" y="-0.54" width="144.56" height="143.22"/><g class="cls-2"><path class="cls-3" d="M25.45,67.45v6c0,1.28.46,1.82,1.2,1.82a2.65,2.65,0,0,0,.92-.19l.16.49a5.43,5.43,0,0,1-3.06,1.11,2.38,2.38,0,0,1-2.39-2.63V67.45H21.14v-.87h1.25l1.84-2.52h1.2v2.52h2v.87Z"/><path class="cls-3" d="M29.39,63.52c0-.82-.17-1-.47-1.06l-.65-.14v-.59l4.21-.44.08.06v6.34a6.4,6.4,0,0,1,3.34-1.38A2.76,2.76,0,0,1,39,69.4v5.48c0,.81.13.9,1.25,1v.62H34.86v-.62c.57-.06,1,0,1-.82V69.46c0-1.14-.51-1.77-1.49-1.77a1.61,1.61,0,0,0-1.54.9,3.13,3.13,0,0,0-.19,1.22V75c0,.81.38.76.95.81v.62h-5.4v-.62c1.11,0,1.25-.16,1.25-1Z"/><path class="cls-3" d="M44.63,71.3c0,2.28.68,3.93,2.63,3.93a2.9,2.9,0,0,0,2.82-1.87l.57.3a4.31,4.31,0,0,1-4.42,3.07c-3.85,0-4.91-2.47-4.91-5.24s1.27-5.21,5-5.21c4,0,4.48,2.55,4.48,4.18,0,.68-.35.81-1.11.81h-5Zm2.3-.81c.47,0,.63-.08.63-.63,0-1.27-.25-2.82-1.38-2.82s-1.58,1.77-1.58,3.45Z"/><path class="cls-3" d="M66.22,66.42l.16.16L65.92,68l-1.3,0a2.81,2.81,0,0,1,.49,1.62c0,2.44-2,3.37-4.48,3.37-.27,0-.78-.06-1.08-.08s-.79.27-.79.67.57.76,1.49.76h1.93c2.09,0,4,.57,4,3.12a3.68,3.68,0,0,1-1.74,3.12,7.08,7.08,0,0,1-3.63,1c-3.15,0-5-1.06-5-2.93,0-1.22,1.3-1.68,2.52-1.76v-.06a2.18,2.18,0,0,1-2-2c0-.87.92-1.68,2.25-2v0a2.88,2.88,0,0,1-2.44-3c0-1.66.92-3.39,4.66-3.39a6.1,6.1,0,0,1,3,.73ZM63.64,78.79c0-1.2-.86-1.71-2.84-1.71a3.72,3.72,0,0,0-2,.3,1.23,1.23,0,0,0-.57,1.14c0,1.38,1.35,2.33,2.93,2.33S63.64,80.06,63.64,78.79ZM59.28,69.7c0,1.28.38,2.58,1.41,2.58s1.38-1.11,1.38-2.61c0-1.65-.46-2.63-1.44-2.63S59.28,67.88,59.28,69.7Z"/><path class="cls-3" d="M75.79,74c0,1.08.19,1.38.52,1.52a2.5,2.5,0,0,0,.87.08l0,.54a6,6,0,0,1-2.74.57,1.55,1.55,0,0,1-1.69-1.22,4.92,4.92,0,0,1-2.84,1.22,2.83,2.83,0,0,1-3-3c0-1.16.51-2,2.17-2.52a12.78,12.78,0,0,0,3.58-1.38v-1.2c0-1.16-.49-1.62-1.17-1.62s-1.22.32-1.71,2.27c-.16.52-.46.79-.89.79s-1.71-.35-1.71-1.27c0-1.23,1.54-2.53,4.58-2.53,3.64,0,4,1.71,4,3V74ZM72.7,70.68a15.35,15.35,0,0,0-1.73.86,1.78,1.78,0,0,0-.79,1.77c0,1.19.62,2,1.44,2,.46,0,1.08-.27,1.08-1.3V70.68Z"/><path class="cls-3" d="M82.2,74.88c0,.81.16.87,1.68,1v.62H77.77v-.62c1.12-.06,1.25-.17,1.25-1V68.67c0-.81-.16-1-.46-1l-.65-.11v-.6l4-.59.24,1.92c1.2-1.33,1.82-2,2.72-2a1.36,1.36,0,0,1,1.46,1.49c0,.82-.54,1.82-1.49,1.82a1.23,1.23,0,0,1-.89-.41,2.07,2.07,0,0,0-1-.54c-.48,0-.65.49-.65,1.49v4.72Z"/><path class="cls-3" d="M93.51,62.46l-.74-.14v-.59l4.29-.44.08.08V74.85c0,.82.16.9,1.3,1v.62H94v-1a5.58,5.58,0,0,1-3,1.31c-2.44,0-3.88-1.82-3.88-5a5.41,5.41,0,0,1,1.54-4.13,5.31,5.31,0,0,1,3.67-1.27,4.59,4.59,0,0,1,1.71.24v-3C94,62.73,93.83,62.51,93.51,62.46ZM94,69a2.69,2.69,0,0,0-.17-1.2,1.48,1.48,0,0,0-1.35-.7c-1.09,0-2.09,1-2.09,4.2,0,2.63.87,4,2.14,4a1.28,1.28,0,0,0,1.11-.47A1.81,1.81,0,0,0,94,73.69V69Z"/><path class="cls-3" d="M102.73,71.3c0,2.28.68,3.93,2.63,3.93a2.9,2.9,0,0,0,2.82-1.87l.57.3a4.31,4.31,0,0,1-4.42,3.07c-3.82,0-4.91-2.47-4.91-5.21s1.27-5.21,5-5.21c4,0,4.48,2.55,4.48,4.18,0,.68-.35.81-1.11.81Zm2.33-.81c.46,0,.63-.08.63-.63,0-1.27-.25-2.82-1.39-2.82s-1.57,1.77-1.57,3.45Z"/><path class="cls-3" d="M120.71,74.94c0,.81.14.84,1.25.89v.62h-5.42v-.62c.59,0,1,0,1-.79V69.48c0-1.14-.52-1.79-1.52-1.79a1.64,1.64,0,0,0-1.55,1,3.11,3.11,0,0,0-.19,1.2V75c0,.81.41.78,1,.84v.62h-5.43v-.62c1.11-.06,1.25-.14,1.25-1V68.67c0-.81-.16-1-.46-1l-.68-.11v-.6l4-.59.27,1.35c1.36-.78,2.31-1.38,3.42-1.38,2.12,0,3,1.25,3,3.15v5.48Z"/></g></svg>