<?xml version="1.0" encoding="utf-8"?>
<!-- Generator: Adobe Illustrator 23.0.4, SVG Export Plug-In . SVG Version: 6.00 Build 0)  -->
<svg version="1.1" id="Layer_1" xmlns="http://www.w3.org/2000/svg" xmlns:xlink="http://www.w3.org/1999/xlink" x="0px" y="0px"
	 viewBox="0 0 401 100.3" style="enable-background:new 0 0 401 100.3;" xml:space="preserve">
<style type="text/css">
	.st0{enable-background:new    ;}
</style>
<g class="st0">
	<path d="M30.6,35.7v22.2c0,4.7,1.7,6.7,4.4,6.7c1,0,2.5-0.3,3.4-0.7l0.6,1.8c-4.4,3.1-8.4,4.1-11.3,4.1c-4.3,0-8.8-2.9-8.8-9.7
		V35.7h-4.2v-3.2h4.6l6.8-9.3h4.4v9.3h7.4v3.2H30.6z"/>
	<path d="M45.1,21.2c0-3-0.6-3.7-1.7-3.9L41,16.8v-2.2L56.5,13l0.3,0.2v23.4c4.6-2.9,8-5.1,12.3-5.1c8,0,11.4,4.5,11.4,11.4v20.2
		c0,3,0.5,3.3,4.6,3.6v2.3H65.3v-2.3c2.1-0.2,3.5,0,3.5-3V43.1c0-4.2-1.9-6.5-5.5-6.5c-3,0-4.8,1.5-5.7,3.3c-0.5,1-0.7,2.9-0.7,4.5
		v19.2c0,3,1.4,2.8,3.5,3v2.3H40.5v-2.3c4.1-0.2,4.6-0.6,4.6-3.6V21.2z"/>
	<path d="M101.3,49.9c0,8.4,2.5,14.5,9.7,14.5c4.4,0,7.8-1.7,10.4-6.9l2.1,1.1c-2.6,6.9-7.4,11.3-16.3,11.3
		C93,70,89.1,60.8,89.1,50.6c0-10.4,4.7-19.2,18.3-19.2c14.6,0,16.5,9.4,16.5,15.4c0,2.5-1.3,3-4.1,3H101.3z M109.8,46.9
		c1.7,0,2.3-0.3,2.3-2.3c0-4.7-0.9-10.4-5.1-10.4c-4.4,0-5.8,6.5-5.8,12.7H109.8z"/>
	<path d="M180.9,31.9l0.6,0.6l-1.7,5.3l-4.8,0.1c1,1.3,1.8,3.6,1.8,6c0,9-7.4,12.4-16.5,12.4c-1,0-2.9-0.2-4-0.3
		c-1,0.2-2.9,1-2.9,2.5c0,1.9,2.1,2.8,5.5,2.8h7.1c7.7,0,14.6,2.1,14.6,11.5c0,5.4-2.9,9.1-6.4,11.5c-3.8,2.5-9.3,3.6-13.4,3.6
		c-11.6,0-18.4-3.9-18.4-10.8c0-4.5,4.8-6.2,9.3-6.5v-0.2c-3.7-0.6-7.5-3.1-7.5-7.5c0-3.2,3.4-6.2,8.3-7.4v-0.2
		c-4.8-0.8-9-4.5-9-11.2c0-6.1,3.4-12.5,17.2-12.5c4.1,0,8.6,1,11.2,2.7L180.9,31.9z M171.4,77.5c0-4.4-3.2-6.3-10.5-6.3
		c-4.9,0-6.4,0.5-7.4,1.1c-1.2,0.8-2.1,2-2.1,4.2c0,5.1,5,8.6,10.8,8.6C168,85,171.4,82.2,171.4,77.5z M155.3,44
		c0,4.7,1.4,9.5,5.2,9.5c3.9,0,5.1-4.1,5.1-9.6c0-6.1-1.7-9.7-5.3-9.7C156.9,34.3,155.3,37.3,155.3,44z"/>
	<path d="M216.2,59.8c0,4,0.7,5.1,1.9,5.6c0.9,0.3,2.2,0.4,3.2,0.3l0.1,2c-2.5,1.3-5.9,2.1-10.1,2.1c-3.9,0-5.5-2-6.2-4.5
		c-2.7,1.7-5.6,4.5-10.5,4.5c-7.5,0-11.1-5.3-11.1-10.9c0-4.3,1.9-7.4,8-9.3c4.9-1.4,11-3.2,13.2-5.1v-4.4c0-4.3-1.8-6-4.3-6
		c-2.3,0-4.5,1.2-6.3,8.4c-0.6,1.9-1.7,2.9-3.3,2.9c-2,0-6.3-1.3-6.3-4.7c0-4.5,5.7-9.3,16.9-9.3c13.4,0,14.8,6.3,14.8,10.9V59.8z
		 M204.8,47.6c-1.8,0.8-4.2,1.9-6.4,3.2c-2,1.2-2.9,3-2.9,6.5c0,4.4,2.3,7.3,5.3,7.3c1.7,0,4-1,4-4.8V47.6z"/>
	<path d="M239.8,63.1c0,3,0.6,3.2,6.2,3.6v2.3h-22.5v-2.3c4.1-0.2,4.6-0.6,4.6-3.6V40.2c0-3-0.6-3.6-1.7-3.8L224,36v-2.2l14.6-2.2
		l0.9,7.1c4.4-4.9,6.7-7.2,10-7.2s5.4,2,5.4,5.5c0,3-2,6.7-5.5,6.7c-1.5,0-2.4-0.7-3.3-1.5c-1.6-1.2-2.7-2-3.8-2
		c-1.8,0-2.4,1.8-2.4,5.5V63.1z"/>
	<path d="M281.5,17.3l-2.7-0.5v-2.2l15.8-1.6l0.3,0.3v49.7c0,3,0.6,3.3,4.8,3.6v2.3h-16.5v-3.8c-4,3.2-8.5,4.8-11.1,4.8
		c-9,0-14.3-6.7-14.3-18.5c0-6.7,2.1-12,5.7-15.2c3.4-3.2,8.2-4.7,13.5-4.7c2.4,0,4.7,0.2,6.3,0.9V21.2
		C283.3,18.3,282.7,17.5,281.5,17.3z M283.3,41.3c0-1.5,0-3.3-0.6-4.4c-0.7-1.2-2.2-2.6-5-2.6c-4,0-7.7,3.6-7.7,15.5
		c0,9.7,3.2,14.9,7.9,14.9c2.2,0,3.4-0.8,4.1-1.7c1-1.2,1.2-2.9,1.2-4.3V41.3z"/>
	<path d="M315.5,49.9c0,8.4,2.5,14.5,9.7,14.5c4.4,0,7.8-1.7,10.4-6.9l2.1,1.1c-2.6,6.9-7.4,11.3-16.3,11.3
		c-14.1,0.1-18.1-9.1-18.1-19.2c0-10.4,4.7-19.2,18.3-19.2c14.6,0,16.5,9.4,16.5,15.4c0,2.5-1.3,3-4.1,3H315.5z M324.1,46.9
		c1.7,0,2.3-0.3,2.3-2.3c0-4.7-0.9-10.4-5.1-10.4c-4.4,0-5.8,6.5-5.8,12.7H324.1z"/>
	<path d="M381.8,63.3c0,3,0.5,3.1,4.6,3.3v2.3h-20v-2.3c2.2-0.2,3.7,0,3.7-2.9V43.2c0-4.2-1.9-6.6-5.6-6.6c-3,0-4.8,1.6-5.7,3.5
		c-0.5,0.9-0.7,2.8-0.7,4.4v19.1c0,3,1.5,2.9,3.7,3.1v2.3h-20v-2.3c4.1-0.2,4.6-0.5,4.6-3.5v-23c0-3-0.6-3.6-1.7-3.8l-2.5-0.4v-2.2
		l14.9-2.2l1,5c5-2.9,8.5-5.1,12.6-5.1c7.8,0,11.2,4.6,11.2,11.6V63.3z"/>
</g>
</svg>
